<svg xmlns="http://www.w3.org/2000/svg" viewBox="0 0 1280 920" style="enable-background:new 0 0 1280 920" xml:space="preserve"><path d="M788 846c-3 0-5-1-9-5l-1-1-6-7c-3-4-4-9 1-17 5-5 5-5 5-17v-16l1-3-1-1-1 1c-5 2-14 2-18-1l-6-8c-4-6-4-6-13-5-10 1-16 1-19-4-3-3-2-5-1-10 1-7 3-11 7-15 5-5 15-10 23-13 12-4 29-15 31-19l1-3c-7 5-16 1-24-4-6-4-6-4-9-4l-9 2c-8 3-17 3-26 0-7-3-17-7-20-11h-1l-4-2-7-1c-8-1-12-3-13-7-1-2-1-4 2-7l4-3c-6-2-11-5-13-7s-2-3-2-5c-2 0-3-1-4-3-5 2-19 2-22 2h-7l-6 2v4l1 7-1 2-4 8c-2 3-5 7-6 11-2 4-5 6-7 6l-4-1-3 9-6 9-6 6-7 5a166 166 0 0 1-14 9v1c1 5-2 10-7 11h-1c6 3 4 9 2 17-2 9-3 13-9 13-4 0-6-3-7-5-3-5-5-6-6-6l-15 4c-7 3-16 5-18 5h-1l-1 1c-2 5-6 9-10 9-6 0-24-8-28-13l-2-6-2-7c-2-5-3-10-1-13 2-4 7-4 11-4h1v-6c0-8 3-11 11-13l5-1v-2c-1-8 1-10 8-13h2c-2-5 3-10 5-13l2-1c-6-4-6-9-6-17 2-11 4-18 12-20l4-2c2-2 6-2 8 0 3 1 5 3 5 6 4-2 9-2 12-1v1l7 4 1 1c0-1 1-5 5-6h6l2-7-1-2c-1-3 0-6 1-9l1-3-3-4-4-2c-5 0-10-4-10-9l-2-4-2-5c-1 0-5 0-7-2-3-3-2-10-1-14h1a37 37 0 0 0 2-6c-4 2-7 1-9 0-1-1-3-4-3-9-3 1-6 1-9-2-2-3-2-5-1-8 2-4 2-9 2-11l-1-5c0-4 2-6 5-8l2-2-1-2-5-10-1-1c-4 0-7-1-11-4-6-4-9-7-10-12l-2-2h-2l-5 2c-5 3-7 4-12 2l-8-6v-1c-4-1-6-3-7-6v-1l-15-11c-5-4-6-4-8-4l-7-2c-3 2-6 2-10 1h-3l-2 3c-2 2-5 5-9 5-3 0-5-2-7-4-2 2-5 2-8 2h-1l-1 2-2 3c-4 3-6 2-12-1h-1l-1 3c-2 7-6 11-16 19l-19 12c-7 3-10 4-22 5a248 248 0 0 1-24 2c-4 11-14 19-24 16-6-1-20-14-22-20l-4 1-13 2c-6 1-8 1-12-2h-15c-5 1-9 0-13-4l-1-1-3 2c-6 2-8 2-12 0-3-1-6-5-9-8l-2-2c-1 4-3 6-8 7-5 0-13 0-17-3-2-1-3-3-3-6l-6-2c-9-1-10-6-11-8l-2-1c-7-1-8-3-10-10-3-7-3-7-6-9l-5-5c-1-4 1-19 2-22l5-9c5-8 9-15 11-24 2-7 4-13 8-14s7 1 10 3l-4-16c-2-11-2-19 0-25l8-13a113 113 0 0 0 9-12l2-2 3-5 1-2a1612 1612 0 0 1 42-52c2-2 7-8 15-5l1-4 2-9c1-1 1-2-3-10-1-2-5-9-5-12s1-4 2-5l2-1c-5-5-9-12-9-18l-4-7-1-2c-6-9-6-10-7-26v-18l1-3 3-3 4-2 4-1 5 1c2 0 3 1 4 3l4 1 4-2c4-4 5-5 8-11 5-8 6-9 17-13l2-1 9-4c2-1 5-2 8 0h15l8-4 5-2h3l4 2c8 4 10 5 35 3h11l11 3c10 2 14 3 16 8 7-2 13-1 17 2 3 2 3 2 11 3 10 0 15 1 16 9l1 2h1l9 3 3 1 2-1 8-2c3 0 5 0 6 2l5-2c5 0 7 3 9 6l2-3c4-4 7-7 11-7 4 1 5 3 8 10l1 1h3c8-2 15-3 18 5l2 2c2-3 6-7 10-8l7-3c4-2 7-3 10-1 4 2 7 7 9 15l1 8c3-6 6-10 12-9h3v-1c5-3 8-3 12 0l1 1 11 1c11 1 14 2 16 3 5 3 12 10 14 14l1 2h1l-4-12c-2-6-2-10-2-18 0-10 0-11 3-15 6-7 14-18 17-24 4-7 7-9 13-12 3-1 11-4 17 2l1-2c5-4 6-5 12-5l8 2h6c7 0 8 1 13 4 2 2 4 3 17-3l2-2 1-2c1-6 5-14 9-17 3-3 5-3 9-1l6 4 9 1 9-1 3-3 4-6c5-6 13-4 20 0l6 2 2-1 6-2h1c4 0 15 4 19 8s12 16 13 21l1 5v1c1 5 5 11 11 18 6 6 8 9 8 13 0 7-3 9-12 13l-3 2 5 5v1c2 2 3 6 2 9v3c1 3 2 7 1 10l-1 1h1c5-1 14 0 22 5 5 3 9 3 15 1 3-1 7-2 10 0 2 1 3 3 4 7 1 5 2 6 5 7l3 2c4 1 10 6 10 10l-3 6h-1l3 7c4 9 6 15 2 20-2 2-1 5 1 8a127 127 0 0 0 9 11c2-2 5-3 10-3l9-1c5-1 7 0 11 3l7 10v2c4-2 9-2 13 1 3 1 7 2 16-1l13-4 9-3 9-4c3-2 6-3 9-2s5 4 6 7 3 5 5 6v1c3 1 5 4 5 7 1 3 3 9 6 12l8 8 7 6v-3c0-12 7-14 11-14 5 0 7 3 12 9 4 5 6 6 12 6s7 0 11 5l2 3c2 0 5 2 6 4l2 2 13-3 3 1 4 4c5 4 6 5 11 5 6 0 7 1 11 5l4 6 5 7c3-3 9-7 13-7 5 0 12 6 12 11 0 3-3 7-4 8l-1 1 1 1c3 4 5 11 4 17 0 4-2 8-4 10l-5 5v1c-4 7-7 10-13 12h-2l4 5 2-1c3-1 6-1 8 1 2 1 3 3 3 7 0 7-8 14-17 14h-2l-1 5v1c4 1 5 4 9 16 3 7 3 9 1 16l3 3 1 4c0 5-2 13-5 17h-1l-1 4c0 4-1 7-3 10-1 3-4 6-7 8-5 3-6 3-20 3l-22-1h-1l-3-1-2 5v1c-5 13-9 17-25 19l-8 1c-2 5-3 20-2 23 2 3 1 5 0 8l-2 7c-1 5-3 8-7 10-3 3-7 3-12 2h-23c-5 1-6 2-11 8-5 5-9 6-22 7h-2l-1 2c-3 8-4 12-8 14-5 1-8 1-12-2l-3-2a196 196 0 0 0-22 11c-2 3-5 3-12 3-10 0-16 2-28 11l-9 5-1 1c-2 4-4 5-8 5h-4c-1 4-6 9-10 9l-12 7c-6 4-7 4-14 5h-1v10l10 8 8 5c10 6 13 13 9 24l-1 5 5 5h1c13 3 13 3 15 2 5-1 7-2 10-5l8-5c5-2 6-2 11 1l5 3 3-1c5-3 15-6 20-5s12 7 14 11c2 5 3 7 0 10-1 2-4 3-8 2h-1v1h-1v7l1 7c0 3-3 6-5 8l-3 4-3 1-9-1a133 133 0 0 1-37-6l-1 1-1 2c0 4-4 7-24 16-5 3-17 6-26 8-10 3-14 6-20 17-3 6-8 13-13 13h-4l-6 1-11 1h-1l-10 1zm-10-17 6 6v1l4 3 8-1 1-1 13-1h9c1 0 4-2 8-10 6-12 13-17 25-20l24-7 20-11v-1l2-4c2-4 4-5 8-4h1l7 2c5 2 15 3 28 4h8l2-2 3-4-1-5v-3c-1-5-1-7 2-10l4-3h6l-1-2c-2-3-7-7-10-8l-15 5c-4 2-7 3-10 1l-5-3-2-2-2 1c-3 1-5 2-6 4-4 4-7 5-13 7-4 1-5 1-19-3h-1c-4-1-10-7-10-12l1-7c3-8 2-11-5-15-4-1-7-4-10-6l-9-8c-3 0-3-5-3-10l-1-6v-3c1-3 4-3 9-4 4 0 5 0 10-4 3-2 11-7 16-7 1-1 3-3 3-5s1-4 3-5h9c1-1 3-4 6-5l6-4c14-10 21-12 33-12l7-1 5-4c2-2 19-9 22-9l6 3c3 2 3 2 6 1 1-1 2-2 4-9 2-6 3-7 9-8 13-1 15-2 17-5 6-6 8-8 15-10h33c2-1 3-3 3-6l3-8 1-2h-1v-16c1-13 3-15 3-16l13-3c13-1 15-3 19-14v-1c3-9 5-11 13-9l1 1 20 1c14-1 14-1 17-3l5-4 1-7 3-9c2-3 5-9 5-12l2-2-2 2h-1c-3-2-4-4-4-8 2-7 2-7 0-13l-5-12c-5-1-5-5-4-8 1-8 2-11 9-11 6 0 10-4 10-7v-1h-9c-3-2-9-9-9-13 0-1 0-2 2-3l6-2c4-1 6-2 9-9a35 35 0 0 1 6-8c2-1 2-3 3-5 0-4-1-9-4-11l-2-4v-4l3-4 2-3-5-3c-1 0-6 2-8 5-1 1-3 3-5 3s-3-1-8-7l-4-8-2-2c-2-3-2-3-6-3-7 0-10-2-16-7l-2-2-13 2c-1 1-3 0-3-1l-4-3-3-2-5-5-2-2-4-1c-8 0-13-2-18-8-4-6-5-6-6-6s-4 0-4 6l-1 9-2 3-2 1-3-1-2-2-8-7-10-9c-3-3-7-11-7-16l-2-2c-4-3-6-6-8-10l-1-3-5 2-9 4-9 3-12 4c-10 3-16 3-22 0h-6c-2 2-3 2-5 2s-3-1-6-8l-5-7-2-2h-3l-10 1-6 2c-3 2-4 3-5 2-2 0-4 0-13-14-6-8-4-14-2-16s2-4-2-13l-4-11v-1l3-4 1-1-4-3-5-2c-6-3-8-6-9-13v-2l-4 1c-8 3-14 2-21-2s-14-5-17-4c-1 1-5 2-8-1-2-2-2-5-1-8v-6c-2-4-2-6 0-8l-1-3-5-5-3-3-1-3 2-3 8-4c8-4 8-5 8-7l-6-8c-8-8-12-15-13-21v-2l-1-5c0-3-7-13-10-17-3-2-12-6-15-6l-3 1c-5 4-7 3-14-1-9-4-11-3-12-1l-3 5-5 5-1 1-13 1c-7 0-10 0-13-3a16 16 0 0 0-6-3c-2 2-6 8-6 13-1 5-2 6-7 9-12 6-18 8-25 3-3-3-3-3-9-3l-10-1-4-1-3 1-3 2-4 4c-2 2-4 2-5 0l-3-2c-1-1-3-2-9 0-4 2-6 3-9 9l-17 24c-2 3-2 3-2 11s0 11 2 16c4 15 5 16 3 19-1 1-3 2-7 2s-6-2-8-6c-1-3-7-8-11-11l-13-1c-9-1-12-1-15-4l-2-1-2 1-4 2h-4c-2 0-2 0-5 5-1 3-4 8-8 6v-1c-3-1-5-5-7-14-1-9-3-10-4-10-1-1-1-1-4 1l-8 3h-1c-1 0-4 3-7 8-1 2-3 5-6 4-3 0-4-3-4-5l-2-5c-1-2-2-3-10-1l-7 1c-1 1-3 0-4-2l-2-4-2-5-5 4c-6 8-7 8-8 8-3 0-4-3-5-5l-3-4-1 5c-1 5-2 8-5 9-2 0-4-2-5-3-2-2-2-5 0-7l1-3-1-1-4 2-4 2h-3l-5-2-7-2c-6 0-7-3-8-9 0-2 0-3-9-3-8 0-10 0-15-4-3-1-6-2-11-1-2 0-6 2-8-4-1-1-2-2-12-3l-12-3v-1h-7c-26 2-30 2-39-3l-3-1-4 1-7 4c-4 2-19 1-22-1s-1 0-1 1l-10 4-2 1c-9 3-9 4-13 10l-9 13c-3 3-6 4-10 4s-6-1-9-4l-1-2h-4l-2 2-1 1v18c0 14 0 14 5 21l1 2c3 3 4 6 5 10 1 7 5 13 11 18l3 2 1 4c0 1-3 3-4 2h-5l3 8c5 9 6 13 3 18l-1 5c-1 6-2 9-5 11-1 0-3 1-5-1-1 0-3-1-7 3l-3 4-4 5-7 7c-3 2-5 5-17 22l-11 14-1 2-3 4-3 4-8 11-7 11c-2 5-1 12 0 22 2 10 4 15 7 18 3 2 4 7 2 10-1 2-3 2-5 2l-1-1c-1 0-3 0-8-5l-5-4s-2 1-4 9c-2 9-6 18-11 26l-4 8c-1 2-3 13-2 17l2 1c4 3 5 5 8 13l2 5 3 1c5 0 7 1 8 6 0 2 3 2 4 3l7 1c2 1 7 2 5 7 2 2 8 3 12 2 2-1 2-1 4-6 1-2 2-4 4-4s2 0 8 7l7 7h2l4-1 6-2 3 1 3 2c2 2 4 3 7 2 11-1 15-2 19 1l8 1 12-2c8-2 9-1 10-1 2 1 3 4 3 5 1 3 13 14 17 15 6 2 13-4 15-12 1-4 5-4 11-4l19-2c12-1 14-1 20-5l17-11c11-8 13-11 14-15l1-5 1-2 2-2h3l5 2 4 2v-1h1v-1s0-2 2-3c1-2 4-2 6-1l4-1 2-2 2-1 3 1 2 3 2 2 3-3 3-4 4-2 5 1h4c2-2 3-2 5-2 1 0 3 0 4 2h3c5 0 7 2 13 5 12 9 15 12 17 16l1 1h1l5 3v3l4 2 2 1 4-3c6-3 8-3 12-2 3 1 6 3 7 7 1 2 2 4 8 8 3 3 4 3 5 2h4c2 0 3 1 4 3l1 4 4 8 3 5v2c0 2-1 3-5 6l-3 3 1 1c2 5-2 17-2 17v1h3l4-1 3 1 1 3v7l3-1c3-2 6-4 9-1 2 2 1 5 0 7l-1 3-1 2-2 4v6l1 1c5 0 6 2 7 4a15 15 0 0 0 2 4l2 8 4 2c4 0 6 1 9 4l2 2 2 2c2 2 1 5-1 10l-1 3c1 2 2 6 1 8l-1 3 2 6c3 0 7 4 7 7l-2 3s-1 2-6 1c-5 0-6-2-9-6l-3-3-1 2-2 5-1 1c-2 2-7-1-9-3h-1l-5-5-7 2-3 2h-3c-1 0-2-1-2-3v-4l-1-3h-2l-6 3c-3 0-5 2-6 14-1 8 0 9 3 10l3 2 2 3-1 3-5 4-4 5c2 2 2 3 1 4 0 3-4 5-7 6l-4 2v3c1 8-2 9-10 11-5 1-5 1-5 6 0 7 0 13-9 13h-5l2 7 3 9v3c3 3 18 10 22 10 1 0 3-1 4-5 2-4 4-5 8-5l16-4 18-5c4 0 8 3 12 10v1l3-8c0-2 2-7 1-8-4-2-6-6-6-12v-2l2-3c2-1 3 0 4 1l2 2h1s2-1 2-4c-1-4 1-6 5-8l11-8 9-6c2-1 6-7 8-11 4-8 3-8-1-11l-7-6c-1-2-3-4-1-6s5-1 8 1l6 3 7 6 1 1 1-2 7-12 4-7-1-6 1-9 4-1 6-2c4-2 6-2 10-1s16 0 18-1l3-1c2 0 4 1 5 3h4c3-3 5-3 10-3l5-1c5-4 11 1 15 4s7 6 4 11c-3 4-6 3-9 2l-9-2-11-2h-1c2 1 7 4 13 5l5 2 2 3-2 4-6 1-5 3 7 2c7 1 9 2 10 3h1c2 0 4 1 5 3s8 5 17 8c8 3 15 3 21 1l11-3c5 0 7 0 13 5 12 8 16 6 18 3 2-2 3-3 6-3l3 3c1 5 1 9-1 13v1c-3 6-23 18-35 22-7 2-16 7-21 12-2 2-4 5-5 10v5c1 2 3 2 13 1 12-1 15 0 20 9 1 3 3 5 4 5 1 2 8 2 11 1 3-2 5-2 8 0 4 3 4 6 3 10v16c0 12-1 14-6 21-4 5-3 7-2 8zm177-50zm0 0zm-105-68zm52-50zm-235-7zm0-1zm13-3h2l9 2-1-1-6-3-4 2zm-27-6zm320-6zm-412-8zm4-4zm-2 0zm-20-9s0 1 0 0c0 1 0 0 0 0zm-3-9zm-2-7zm-1 0zm540-17zm1-22zm-563-5zm0 0zm-273-27zm-105-13zm329-10zm-2-4zm-39-21zm-328-3zm324-1zm9 0zm752-108zM137 355zm0 0zm0 0zm968-14zm0 0zm-1 0zm1-7zm0 0zm0 0zm0 0zm0 0zm0 0zm-894-58zm0-1zm-6-26zm0 0zm688-21zm0 0zm-290-26zm225-19zm-496-40zm-64-5zm-15-1z"/></svg>
